<?xml version="1.0" encoding="UTF-8"?>
<svg width="151px" height="42px" viewBox="0 0 151 42" version="1.1" xmlns="http://www.w3.org/2000/svg" xmlns:xlink="http://www.w3.org/1999/xlink">
    <!-- Generator: Sketch 52.6 (67491) - http://www.bohemiancoding.com/sketch -->
    <title>Logo full</title>
    <desc>Created with Sketch.</desc>
    <g id="Page-1" stroke="none" stroke-width="1" fill="none" fill-rule="evenodd">
        <g id="Desktop-Launch-page" transform="translate(-645.000000, -616.000000)">
            <g id="Book-Instant">
                <g id="Logo-full" transform="translate(645.000000, 616.000000)">
                    <g id="Group-16">
                        <path d="M97.2401423,2.28630041 C97.4807944,1.99419027 97.5317077,1.58929141 97.3704296,1.24680653 C97.2091516,0.904004832 96.8650918,0.685714286 96.4871952,0.685714286 L72.1152373,0.685714286 C71.5757465,0.685714286 71.1387146,1.12356267 71.1387146,1.66374464 L71.1387146,5.63004267 C71.1387146,6.17054147 71.5757465,6.60838985 72.1152373,6.60838985 L85.8956552,6.60838985 L69.5449081,26.5143332 C69.3052046,26.8067602 69.2549238,27.2113422 69.4162019,27.5538271 C69.5774799,27.8956783 69.9212235,28.1142857 70.2991201,28.1142857 L95.0948281,28.1142857 C95.634319,28.1142857 96.0710346,27.6761205 96.0710346,27.1359385 L96.0710346,23.1696405 C96.0710346,22.6294585 95.634319,22.1916102 95.0948281,22.1916102 L80.8460714,22.1916102 L97.2401423,2.28630041 Z" id="Fill-1" fill="#05C4E1"></path>
                        <path d="M28.1277556,14.8472861 C28.1277556,14.1778537 28.0657823,13.4625013 27.9383578,12.6606194 C27.8637369,12.1914232 27.4545871,11.8459299 26.9739783,11.8459299 L16.8903634,11.8459299 C16.3512594,11.8459299 15.9142849,12.2776404 15.9142849,12.8102499 L15.9142849,16.8836975 C15.9142849,17.416307 16.3512594,17.8480175 16.8903634,17.8480175 L21.4741696,17.8480175 C20.2868762,20.8171985 17.4165035,22.8023794 14.1230686,22.8023794 C9.68249634,22.8023794 6.0703419,19.2337394 6.0703419,14.8472861 C6.0703419,10.460208 9.68249634,6.89125562 14.1230686,6.89125562 C16.2681015,6.89125562 18.2866583,7.71594133 19.8075322,9.21349562 C20.1891735,9.58835276 20.8063764,9.58835276 21.1867529,9.21193371 L24.0988627,6.33521752 C24.2822529,6.15434895 24.3846985,5.90881752 24.3846985,5.65266514 C24.3846985,5.39682514 24.2816206,5.15129371 24.0982304,4.97042514 C21.431484,2.34236419 17.8892075,0.894790857 14.1230686,0.894790857 C6.3356253,0.894790857 0.000126475996,7.15365562 0.000126475996,14.8472861 C0.000126475996,22.5409166 6.3356253,28.8000937 14.1230686,28.8000937 C21.8453767,28.8000937 28.1277556,22.5409166 28.1277556,14.8472861" id="Fill-3" fill="#FFFFFF"></path>
                        <path d="M69.2123524,14.8472861 C69.2123524,14.1778537 69.1510677,13.4625013 69.025059,12.6606194 C68.9512673,12.1914232 68.5466635,11.8459299 68.0713948,11.8459299 L58.0998201,11.8459299 C57.5667062,11.8459299 57.1345869,12.2776404 57.1345869,12.8102499 L57.1345869,16.8836975 C57.1345869,17.416307 57.5667062,17.8480175 58.0998201,17.8480175 L62.6326952,17.8480175 C61.4585939,20.8171985 58.6201142,22.8023794 55.363273,22.8023794 C50.9720405,22.8023794 47.4000211,19.2337394 47.4000211,14.8472861 C47.4000211,10.460208 50.9720405,6.89125562 55.363273,6.89125562 C57.4844722,6.89125562 59.4806007,7.71594133 60.9845759,9.21349562 C61.3619768,9.58835276 61.9723218,9.58835276 62.348472,9.21193371 L65.228225,6.33521752 C65.4095775,6.15434895 65.5108848,5.90881752 65.5108848,5.65266514 C65.5108848,5.39682514 65.4089522,5.15129371 65.2275996,4.97042514 C62.5904838,2.34236419 59.087566,0.894790857 55.363273,0.894790857 C47.6623569,0.894790857 41.3969398,7.15365562 41.3969398,14.8472861 C41.3969398,22.5409166 47.6623569,28.8000937 55.363273,28.8000937 C62.9997777,28.8000937 69.2123524,22.5409166 69.2123524,14.8472861" id="Fill-6" fill="#FFFFFF"></path>
                        <path d="M37.75,27.1359498 L37.75,1.66405016 C37.75,1.12355761 37.3294793,0.685714286 36.8103705,0.685714286 L32.5123568,0.685714286 C31.993248,0.685714286 31.5727273,1.12355761 31.5727273,1.66405016 L31.5727273,27.1359498 C31.5727273,27.6761256 31.993248,28.1142857 32.5123568,28.1142857 L36.8103705,28.1142857 C37.3294793,28.1142857 37.75,27.6761256 37.75,27.1359498" id="Fill-9" fill="#FFFFFF"></path>
                        <path d="M122.172727,6.97679935 C119.739373,2.81111385 115.243265,0 110.094688,0 C102.372919,0 96.0909091,6.30612272 96.0909091,14.0574576 C96.0909091,21.808163 102.372919,28.1142857 110.094688,28.1142857 C115.243265,28.1142857 119.739373,25.3031719 122.172727,21.1378011 C121.126144,18.9964197 120.521959,16.5991678 120.521959,14.0574576 C120.521959,11.5157474 121.126144,9.11818074 122.172727,6.97679935 M118.079826,14.0574576 C118.079826,18.4771253 114.497676,22.0728458 110.094688,22.0728458 C105.6917,22.0728458 102.109549,18.4771253 102.109549,14.0574576 C102.109549,9.63747517 105.6917,6.04206937 110.094688,6.04206937 C114.497676,6.04206937 118.079826,9.63747517 118.079826,14.0574576" id="Fill-11" fill="#05C4E1"></path>
                        <path d="M150.870958,14.0437105 C150.870958,6.35008 144.606167,0.0909028571 136.904938,0.0909028571 C129.204647,0.0909028571 122.939543,6.35008 122.939543,14.0437105 C122.939543,21.7370286 129.204647,27.9958933 136.904938,27.9958933 C144.606167,27.9958933 150.870958,21.7370286 150.870958,14.0437105 M144.86819,14.0437105 C144.86819,18.4307886 141.295858,21.9994286 136.904938,21.9994286 C132.514018,21.9994286 128.941686,18.4307886 128.941686,14.0437105 C128.941686,9.65663238 132.514018,6.08799238 136.904938,6.08799238 C141.295858,6.08799238 144.86819,9.65663238 144.86819,14.0437105" id="Fill-13" fill="#05C4E1"></path>
                        <path d="M15.0689992,36.31 C15.5380016,36.31 15.9053812,36.413849 16.1711492,36.62155 C16.4369172,36.829251 16.5697992,37.1162315 16.5697992,37.4825 C16.5697992,37.7594347 16.49275,37.9916991 16.3386492,38.1793 C16.1845485,38.3669009 15.969034,38.489733 15.6920992,38.5478 C16.0360343,38.5924669 16.3040316,38.7197656 16.4960992,38.9297 C16.6881669,39.1396344 16.7841992,39.4053984 16.7841992,39.727 C16.7841992,40.129002 16.6345674,40.4416656 16.3352992,40.665 C16.0360311,40.8883345 15.6206352,41 15.0890992,41 L13.1058992,41 L13.1058992,36.31 L15.0689992,36.31 Z M15.0488992,38.3803 C15.3794342,38.3803 15.636265,38.3077174 15.8193992,38.16255 C16.0025335,38.0173826 16.0940992,37.8108013 16.0940992,37.5428 C16.0940992,37.283732 16.0025335,37.082734 15.8193992,36.9398 C15.636265,36.796866 15.3794342,36.7276333 15.0488992,36.7321 L13.5681992,36.7321 L13.5681992,38.3803 L15.0488992,38.3803 Z M15.0488992,40.5846 C15.4509012,40.5846 15.7624481,40.5053175 15.9835492,40.34675 C16.2046503,40.1881825 16.3151992,39.9659681 16.3151992,39.6801 C16.3151992,39.3986986 16.2035337,39.1798341 15.9801992,39.0235 C15.7568648,38.8671659 15.4464346,38.789 15.0488992,38.789 L13.5681992,38.789 L13.5681992,40.5846 L15.0488992,40.5846 Z M22.0830993,36.2765 C22.5297682,36.2765 22.9395808,36.3825823 23.3125493,36.59475 C23.6855178,36.8069177 23.9814316,37.0938982 24.2002993,37.4557 C24.4191671,37.8175018 24.5285993,38.2150312 24.5285993,38.6483 C24.5285993,39.0815688 24.4191671,39.4813315 24.2002993,39.8476 C23.9814316,40.2138685 23.6855178,40.5041989 23.3125493,40.7186 C22.9395808,40.9330011 22.5297682,41.0402 22.0830993,41.0402 C21.6364304,41.0402 21.2266178,40.9330011 20.8536493,40.7186 C20.4806808,40.5041989 20.1847671,40.2138685 19.9658993,39.8476 C19.7470316,39.4813315 19.6375993,39.0815688 19.6375993,38.6483 C19.6375993,38.2150312 19.7470316,37.8175018 19.9658993,37.4557 C20.1847671,37.0938982 20.4806808,36.8069177 20.8536493,36.59475 C21.2266178,36.3825823 21.6364304,36.2765 22.0830993,36.2765 Z M22.0897993,36.6919 C21.7324642,36.6919 21.4019342,36.7789991 21.0981993,36.9532 C20.7944645,37.1274009 20.5532669,37.3641318 20.3745993,37.6634 C20.1959318,37.9626682 20.1065993,38.2909649 20.1065993,38.6483 C20.1065993,39.0056351 20.1959318,39.3361651 20.3745993,39.6399 C20.5532669,39.9436349 20.7944645,40.1837158 21.0981993,40.36015 C21.4019342,40.5365842 21.7324642,40.6248 22.0897993,40.6248 C22.4426677,40.6248 22.7698478,40.5365842 23.0713493,40.36015 C23.3728508,40.1837158 23.6129318,39.9436349 23.7915993,39.6399 C23.9702669,39.3361651 24.0595993,39.0056351 24.0595993,38.6483 C24.0595993,38.2909649 23.9702669,37.9626682 23.7915993,37.6634 C23.6129318,37.3641318 23.3728508,37.1274009 23.0713493,36.9532 C22.7698478,36.7789991 22.4426677,36.6919 22.0897993,36.6919 Z M29.6130994,36.2765 C30.0597683,36.2765 30.4695809,36.3825823 30.8425494,36.59475 C31.2155179,36.8069177 31.5114316,37.0938982 31.7302994,37.4557 C31.9491672,37.8175018 32.0585994,38.2150312 32.0585994,38.6483 C32.0585994,39.0815688 31.9491672,39.4813315 31.7302994,39.8476 C31.5114316,40.2138685 31.2155179,40.5041989 30.8425494,40.7186 C30.4695809,40.9330011 30.0597683,41.0402 29.6130994,41.0402 C29.1664305,41.0402 28.7566179,40.9330011 28.3836494,40.7186 C28.0106809,40.5041989 27.7147672,40.2138685 27.4958994,39.8476 C27.2770316,39.4813315 27.1675994,39.0815688 27.1675994,38.6483 C27.1675994,38.2150312 27.2770316,37.8175018 27.4958994,37.4557 C27.7147672,37.0938982 28.0106809,36.8069177 28.3836494,36.59475 C28.7566179,36.3825823 29.1664305,36.2765 29.6130994,36.2765 Z M29.6197994,36.6919 C29.2624643,36.6919 28.9319342,36.7789991 28.6281994,36.9532 C28.3244645,37.1274009 28.0832669,37.3641318 27.9045994,37.6634 C27.7259318,37.9626682 27.6365994,38.2909649 27.6365994,38.6483 C27.6365994,39.0056351 27.7259318,39.3361651 27.9045994,39.6399 C28.0832669,39.9436349 28.3244645,40.1837158 28.6281994,40.36015 C28.9319342,40.5365842 29.2624643,40.6248 29.6197994,40.6248 C29.9726678,40.6248 30.2998479,40.5365842 30.6013494,40.36015 C30.9028509,40.1837158 31.1429318,39.9436349 31.3215994,39.6399 C31.5002669,39.3361651 31.5895994,39.0056351 31.5895994,38.6483 C31.5895994,38.2909649 31.5002669,37.9626682 31.3215994,37.6634 C31.1429318,37.3641318 30.9028509,37.1274009 30.6013494,36.9532 C30.2998479,36.7789991 29.9726678,36.6919 29.6197994,36.6919 Z M39.0056995,41 L38.4361995,41 L36.6606995,38.722 L35.7092995,39.7538 L35.7092995,41 L35.2469995,41 L35.2469995,36.31 L35.7092995,36.31 L35.7092995,39.1642 L38.3088995,36.31 L38.8716995,36.31 L36.9889995,38.3602 L39.0056995,41 Z M45.4159996,36.31 L48.9736996,36.31 L48.9736996,36.7321 L47.4259996,36.7321 L47.4259996,41 L46.9636996,41 L46.9636996,36.7321 L45.4159996,36.7321 L45.4159996,36.31 Z M55.0162997,41 L54.4601997,39.7538 L51.8605997,39.7538 L51.3111997,41 L50.8153997,41 L52.9258997,36.3167 L53.4082997,36.3167 L55.5187997,41 L55.0162997,41 Z M52.0414997,39.3384 L54.2792997,39.3384 L53.1536997,36.8058 L52.0414997,39.3384 Z M58.4592998,36.3167 L58.9215998,36.3167 L58.9215998,40.5846 L60.9851998,40.5846 L60.9851998,41 L58.4592998,41 L58.4592998,36.3167 Z M64.0663998,36.3167 L67.2019998,36.3167 L67.2019998,36.7321 L64.5286998,36.7321 L64.5286998,38.4071 L66.9205998,38.4071 L66.9205998,38.8225 L64.5286998,38.8225 L64.5286998,40.5846 L67.2890998,40.5846 L67.2890998,41 L64.0663998,41 L64.0663998,36.3167 Z M73.9882999,36.3167 L74.4438999,36.3167 L74.4438999,41 L73.9547999,41 L71.0536999,37.0336 L71.0536999,41 L70.5913999,41 L70.5913999,36.3167 L71.0804999,36.3167 L73.9882999,40.2831 L73.9882999,36.3167 Z M77.4313,36.31 L80.989,36.31 L80.989,36.7321 L79.4413,36.7321 L79.4413,41 L78.979,41 L78.979,36.7321 L77.4313,36.7321 L77.4313,36.31 Z M87.9822002,36.3167 L88.4445002,36.3167 L88.4445002,41 L87.9822002,41 L87.9822002,36.3167 Z M95.4854002,36.3167 L95.9410002,36.3167 L95.9410002,41 L95.4519002,41 L92.5508002,37.0336 L92.5508002,41 L92.0885002,41 L92.0885002,36.3167 L92.5776002,36.3167 L95.4854002,40.2831 L95.4854002,36.3167 Z M102.1913,37.0805 C101.999233,36.9598994 101.789301,36.867217 101.5615,36.80245 C101.333699,36.737683 101.119301,36.7053 100.9183,36.7053 C100.596699,36.7053 100.338751,36.7689494 100.14445,36.89625 C99.9501493,37.0235506 99.8530003,37.1966322 99.8530003,37.4155 C99.8530003,37.6075676 99.9065998,37.7638994 100.0138,37.8845 C100.121001,38.0051006 100.252766,38.1000163 100.4091,38.16925 C100.565434,38.2384837 100.779832,38.3155329 101.0523,38.4004 C101.369435,38.4942005 101.625149,38.5868829 101.81945,38.67845 C102.013751,38.7700171 102.179016,38.9028991 102.31525,39.0771 C102.451484,39.2513009 102.5196,39.4813319 102.5196,39.7672 C102.5196,40.0173346 102.449251,40.2384324 102.30855,40.4305 C102.16785,40.6225676 101.970202,40.7710828 101.7156,40.87605 C101.460999,40.9810172 101.168435,41.0335 100.8379,41.0335 C100.511832,41.0335 100.193585,40.968734 99.8831503,40.8392 C99.5727154,40.709666 99.3058348,40.5377011 99.0825003,40.3233 L99.2969003,39.9414 C99.5068347,40.1468677 99.7502656,40.3076661 100.0272,40.4238 C100.304135,40.5399339 100.576599,40.598 100.8446,40.598 C101.201935,40.598 101.485566,40.5254174 101.6955,40.38025 C101.905435,40.2350826 102.0104,40.0396679 102.0104,39.794 C102.0104,39.5974657 101.956801,39.4366673 101.8496,39.3116 C101.7424,39.1865327 101.610634,39.0905003 101.4543,39.0235 C101.297966,38.9564997 101.079102,38.8783338 100.7977,38.789 C100.480565,38.6907328 100.225968,38.5980504 100.0339,38.51095 C99.8418327,38.4238496 99.678801,38.2943175 99.5448003,38.12235 C99.4107996,37.9503825 99.3438003,37.7259347 99.3438003,37.449 C99.3438003,37.2122655 99.4107996,37.0045676 99.5448003,36.8259 C99.678801,36.6472324 99.8663991,36.5098838 100.1076,36.41385 C100.348802,36.3178162 100.627965,36.2698 100.9451,36.2698 C101.199702,36.2698 101.455416,36.3077663 101.71225,36.3837 C101.969085,36.4596337 102.195766,36.5601327 102.3923,36.6852 L102.1913,37.0805 Z M105.172,36.31 L108.7297,36.31 L108.7297,36.7321 L107.182,36.7321 L107.182,41 L106.7197,41 L106.7197,36.7321 L105.172,36.7321 L105.172,36.31 Z M114.7723,41 L114.2162,39.7538 L111.6166,39.7538 L111.0672,41 L110.5714,41 L112.6819,36.3167 L113.1643,36.3167 L115.2748,41 L114.7723,41 Z M111.7975,39.3384 L114.0353,39.3384 L112.9097,36.8058 L111.7975,39.3384 Z M121.612201,36.3167 L122.067801,36.3167 L122.067801,41 L121.578701,41 L118.677601,37.0336 L118.677601,41 L118.215301,41 L118.215301,36.3167 L118.704401,36.3167 L121.612201,40.2831 L121.612201,36.3167 Z M125.055201,36.31 L128.612901,36.31 L128.612901,36.7321 L127.065201,36.7321 L127.065201,41 L126.602901,41 L126.602901,36.7321 L125.055201,36.7321 L125.055201,36.31 Z M131.593601,36.3167 L132.055901,36.3167 L132.055901,40.5846 L134.119501,40.5846 L134.119501,41 L131.593601,41 L131.593601,36.3167 Z M140.590901,36.3167 L138.788601,39.3317 L138.788601,41 L138.326301,41 L138.326301,39.3317 L136.497201,36.3167 L136.979601,36.3167 L138.560801,38.8359 L140.108501,36.3167 L140.590901,36.3167 Z" id="BOOK-TALENT-INSTANTL" fill="#FFFFFF"></path>
                    </g>
                </g>
            </g>
        </g>
    </g>
</svg>