<?xml version="1.0" encoding="UTF-8"?>
<svg width="53px" height="50px" viewBox="0 0 53 50" version="1.1" xmlns="http://www.w3.org/2000/svg" xmlns:xlink="http://www.w3.org/1999/xlink">
    <!-- Generator: Sketch 56.2 (81672) - https://sketch.com -->
    <title>Account protection</title>
    <desc>Created with Sketch.</desc>
    <g id="June2019---Updates" stroke="none" stroke-width="1" fill="none" fill-rule="evenodd">
        <g id="Deskltop-Talent Town-Guarantee" transform="translate(-569.000000, -235.000000)">
            <g id="Account-protection" transform="translate(570.000000, 236.000000)">
                <path d="M17,0 L44,0 C46.209139,0 48,1.790861 48,4 L48,33 C48,35.209139 46.209139,37 44,37 L4,37 C1.790861,37 0,35.209139 0,33 L0,11" id="Rectangle" stroke="#05C4E1" stroke-width="2" transform="translate(24.000000, 18.500000) scale(-1, -1) translate(-24.000000, -18.500000) "></path>
                <path d="M50.6529474,32.5513684 C50.6529474,38.0974737 48.0929474,41.7763158 45.9451579,43.8858947 C43.3974737,46.3883158 40.7841053,47.3616842 40.3265263,47.3912632 C39.8688421,47.3616842 37.2553684,46.3884211 34.7076842,43.8858947 C32.5601053,41.7763158 30,38.0974737 30,32.5513684 L30,27.3675789 C33.6242105,26.3194737 37.0153684,24.8850526 40.3268421,23 C43.5636842,24.8371579 47.1068421,26.3353684 50.6529474,27.3669474 L50.6529474,32.5513684 Z" id="Path" stroke="#05C4E1" stroke-width="2" fill-opacity="0.1" fill="#05C4E1" stroke-linejoin="round"></path>
                <path d="M45.6803289,38.0654869 C45.2025395,37.7341184 44.5466447,37.8532763 44.2155921,38.3310658 C43.89475,38.7942237 43.5311711,39.2445395 43.1344342,39.6696974 C42.8686447,39.9548553 42.5029605,40.2986447 42.1050658,40.6371711 C41.6623289,41.0140132 41.6088553,41.678329 41.9855921,42.1211711 C42.1938026,42.3658026 42.4899079,42.4914869 42.7878026,42.4914869 C43.0289605,42.4914869 43.2713816,42.4090658 43.4695921,42.2404342 C43.9338026,41.8452763 44.3505395,41.4528553 44.6741184,41.1053816 C45.1395921,40.6066447 45.5675921,40.0766447 45.9461184,39.5301184 C46.2771711,39.052329 46.1582237,38.3965395 45.6803289,38.0654869 Z" id="Path" fill="#05C4E1" fill-rule="nonzero"></path>
                <path d="M41.0944342,42.7852763 C40.8474868,42.2589605 40.2209605,42.0324342 39.6944342,42.2792763 L39.6614868,42.2941184 C39.1295921,42.52875 38.88875,43.1502237 39.1235921,43.6821184 C39.2972763,44.0758026 39.68275,44.3100132 40.0870658,44.3100132 C40.2290658,44.3100132 40.3733816,44.2810658 40.5114868,44.2201184 C40.5371711,44.2088553 40.5626447,44.1972763 40.5882237,44.1853816 C41.1145395,43.9384342 41.3411711,43.3118026 41.0944342,42.7852763 Z" id="Path" fill="#05C4E1" fill-rule="nonzero"></path>
                <path d="M45.8645395,29.3082237 C45.4536974,28.8973816 44.7872763,28.8971711 44.3760132,29.3081184 L38.7468553,34.9368553 L35.7970658,31.9868553 C35.3859079,31.5761184 34.7193816,31.5759079 34.3083289,31.9868553 C33.8972763,32.3980132 33.8971711,33.0645395 34.3083289,33.4755921 L38.0025395,37.1699079 C38.2081184,37.3754869 38.4774868,37.478329 38.7468553,37.478329 C39.0162237,37.478329 39.2856974,37.3754869 39.4910658,37.1699079 L45.8644342,30.7969605 C46.2755921,30.3860132 46.2755921,29.7194869 45.8645395,29.3082237 Z" id="Path" fill="#05C4E1" fill-rule="nonzero"></path>
                <polygon id="Stroke-3502" stroke="#05C4E1" stroke-width="2" stroke-linejoin="round" points="22 16 44 16 44 20 22 20"></polygon>
                <path d="M18,29.792 C17.8140112,29.62816 14.3780454,27.44 14.3780454,27.44 C13.9320585,27.21792 13.0909258,27.296 13.0909258,26.8 L13.0909258,25.45344 C13.1881033,25.34336 13.9423554,24.88704 14.0607704,24.72064 C14.5312127,24.06016 15.0113083,23.33312 15.2577917,22.57088 C15.7005608,22.4352 16.3087248,22.02816 16.3087248,21.54496 L16.3087248,20.10816 C16.3087248,19.98336 16.2424382,19.86368 16.149122,19.75232 C15.8505103,19.39648 15.665165,18.96064 15.665165,18.49728 L15.665165,17.84 C15.665165,17.84 15.5634826,14 11.1602464,14 C6.75701021,14 6.65532776,17.84 6.65532776,17.84 L6.65532776,18.49728 C6.65532776,18.96064 6.46998253,19.39648 6.17137078,19.75232 C6.07805461,19.86368 6.01176795,19.98336 6.01176795,20.10816 L6.01176795,21.54496 C6.01176795,21.92384 6.4944378,22.25664 6.79369311,22.44928 C7.15473016,24.0128 9.22956698,25.13792 9.22956698,25.13792 L9.22956698,26.4512 C9.22956698,26.93056 8.04734761,27.37152 7.62388526,27.60064 L4,29.3759255 C4.01254661,29.3741331 4,31.92768 3.9547246,32 L18,32 C18,32 17.8983176,29.86496 18,29.792 Z" id="Stroke-3506" stroke="#05C4E1" stroke-width="2" fill-opacity="0.1" fill="#05C4E1" stroke-linejoin="round"></path>
                <path d="M0,9.5 L48,9.5" id="Line" stroke="#05C4E1" stroke-width="2" stroke-linecap="round" stroke-linejoin="round"></path>
                <path d="M15.0241974,5 L44,5" id="Line-Copy" stroke="#05C4E1" stroke-width="2" stroke-linecap="round" stroke-linejoin="round"></path>
                <path d="M22,24 L35,24" id="Line-Copy-2" stroke="#05C4E1" stroke-width="2" stroke-linecap="round" stroke-linejoin="round"></path>
                <path d="M22,28 L27,28" id="Line-Copy-3" stroke="#05C4E1" stroke-width="2" stroke-linecap="round" stroke-linejoin="round"></path>
                <circle id="Oval" fill="#05C4E1" cx="4" cy="5" r="1"></circle>
                <circle id="Oval-Copy" fill="#05C4E1" cx="7" cy="5" r="1"></circle>
                <circle id="Oval-Copy-2" fill="#05C4E1" cx="10" cy="5" r="1"></circle>
            </g>
        </g>
    </g>
</svg>