<svg xmlns="http://www.w3.org/2000/svg" width="56" height="47" viewBox="0 0 56 47">
    <g fill="none" fill-rule="evenodd">
        <path fill="#FFF" d="M3.818 23.5C2.071 25.89 1 29.038 1 32.5 1 39.956 5.925 46 12 46h32c6.075 0 11-6.044 11-13.5 0-3.462-1.071-6.61-2.818-9"/>
        <path stroke="#05C4E1" stroke-linejoin="round" stroke-width="2" d="M3.818 23.5C2.071 25.89 1 29.038 1 32.5 1 39.956 5.925 46 12 46h32c6.075 0 11-6.044 11-13.5 0-3.462-1.071-6.61-2.818-9"/>
        <path fill="#05C4E1" fill-opacity=".1" d="M19 37.5a6 6 0 1 1-12 0 6 6 0 0 1 12 0z"/>
        <path stroke="#05C4E1" stroke-linejoin="round" stroke-width="2" d="M19 37.5a6 6 0 1 1-12 0 6 6 0 0 1 12 0z"/>
        <path fill="#05C4E1" fill-opacity=".1" d="M50 37.5a6 6 0 1 1-12 0 6 6 0 0 1 12 0z"/>
        <path stroke="#05C4E1" stroke-linejoin="round" stroke-width="2" d="M50 37.5a6 6 0 1 1-12 0 6 6 0 0 1 12 0z"/>
        <path fill="#05C4E1" d="M27 41a2.5 2.5 0 1 1-5 0 2.5 2.5 0 0 1 5 0M35 41a2.5 2.5 0 1 1-5 0 2.5 2.5 0 0 1 5 0"/>
        <path stroke="#05C4E1" stroke-linecap="round" stroke-linejoin="round" stroke-width="2" d="M13 34v6m3-3h-6m31-.5v1m6-1v1m-3-4v1m0 5v1"/>
        <path fill="#FFF" d="M44 1.5c6.075 0 11 6.045 11 13.5 0 7.456-4.925 13.5-11 13.5H12C5.925 28.5 1 22.456 1 15 1 7.545 5.925 1.5 12 1.5h32z"/>
        <path stroke="#05C4E1" stroke-linejoin="round" stroke-width="2" d="M44 1.5c6.075 0 11 6.045 11 13.5 0 7.456-4.925 13.5-11 13.5H12C5.925 28.5 1 22.456 1 15 1 7.545 5.925 1.5 12 1.5h32z"/>
        <path fill="#05C4E1" fill-opacity=".1" d="M34.5 28.5h-13C14.075 28.5 8 22.425 8 15S14.075 1.5 21.5 1.5h13C41.925 1.5 48 7.575 48 15s-6.075 13.5-13.5 13.5z"/>
        <path stroke="#05C4E1" stroke-linecap="round" stroke-linejoin="round" stroke-width="2" d="M34.5 28.5h-13C14.075 28.5 8 22.425 8 15S14.075 1.5 21.5 1.5h13C41.925 1.5 48 7.575 48 15s-6.075 13.5-13.5 13.5zM18 13.5l4-4m-4 9l2-2"/>
        <path fill="#05C4E1" d="M22 15.488c-.26 0-.52-.11-.71-.29-.18-.19-.29-.45-.29-.71 0-.26.11-.521.29-.71.37-.37 1.05-.37 1.42 0 .18.188.29.438.29.71 0 .27-.11.52-.29.71-.19.18-.45.29-.71.29"/>
        <path stroke="#05C4E1" stroke-linecap="round" stroke-linejoin="round" stroke-width="2" d="M24 12.5l3-3"/>
    </g>
</svg>
