<svg xmlns="http://www.w3.org/2000/svg" width="245" height="48" viewBox="0 0 245 48">
    <g fill="none" fill-rule="nonzero">
        <path fill="#747474" d="M171.034 9.194c2.974 0 5.408.947 7.234 2.84 1.825 1.893 2.704 4.53 2.704 7.842v7.978h.067c0 3.312-.878 5.949-2.704 7.842-1.825 1.893-4.191 2.84-7.234 2.84-3.042 0-5.408-.947-7.233-2.84-1.826-1.893-2.705-4.462-2.705-7.842v-7.978c0-3.313.88-5.95 2.705-7.842 1.825-1.893 4.191-2.84 7.166-2.84zm-23.054 0c3.178 0 5.544.744 7.099 2.299 1.555 1.555 2.366 3.718 2.434 6.625v.136h-5.206c-.068-1.623-.406-2.772-1.082-3.516-.676-.744-1.69-1.082-3.11-1.082-1.352 0-2.433.474-3.177 1.42-.744.947-1.15 2.434-1.15 4.394v8.722c0 2.028.406 3.447 1.15 4.394.744.946 1.893 1.42 3.38 1.42 1.082 0 1.893-.136 2.434-.474.541-.27.947-.743 1.285-1.352v-5.07h-3.719v-3.921h9.33v10.614c-.744 1.217-1.893 2.298-3.448 3.245-1.555.946-3.515 1.42-5.814 1.42-3.042 0-5.476-.88-7.301-2.705-1.826-1.757-2.772-4.326-2.772-7.64V19.47c0-3.245.879-5.814 2.636-7.571 1.758-1.826 4.124-2.705 7.031-2.705zM70.301 9.6l5.07 20.89h.136L80.645 9.6h7.234v28.462h-5.544v-8.248l.473-11.02h-.135L77.265 38.13h-3.719l-5.34-19.2h-.136l.474 10.884v8.248H63V9.6h7.301zm34.074 0l7.977 28.462h-5.544l-1.554-6.085h-7.505l-1.555 6.085h-5.61L98.56 9.6h5.814zm15.752 0l8.72 18.186.136-.068V9.6h5.544v28.462h-5.544l-8.721-18.186-.135.068v18.118h-5.544V9.6h5.544zm74.366 0c2.84 0 5.07.811 6.693 2.501 1.622 1.69 2.434 3.854 2.434 6.626 0 2.704-.812 4.935-2.502 6.625-1.622 1.69-3.853 2.502-6.693 2.502h-4.259v10.208h-5.543V9.6h9.87zm21.972 0l7.977 28.462h-5.611l-1.487-6.085h-7.505l-1.554 6.085h-5.612L210.651 9.6h5.814zm12.507 0l4.665 12.169h.135L238.504 9.6h6.017l-8.113 18.321v10.141h-5.543V27.583L222.887 9.6h6.085zm-57.938 4.056c-1.488 0-2.57.541-3.313 1.555-.744 1.014-1.082 2.57-1.082 4.597v8.046c0 2.095.338 3.583 1.082 4.664.744 1.014 1.825 1.555 3.313 1.555 1.42 0 2.501-.54 3.312-1.555.744-1.014 1.15-2.569 1.15-4.664v-8.046c0-2.028-.406-3.583-1.15-4.597-.743-1.014-1.825-1.555-3.312-1.555zm-69.499 3.786h-.135l-2.501 10.073h5.205l-2.569-10.073zm112.09.068h-.135l-2.501 10.005h5.205l-2.569-10.005zm-19.132-3.448h-4.327v9.33h4.327c1.217 0 2.096-.406 2.704-1.285.609-.879.947-1.96.947-3.313 0-1.352-.338-2.501-.947-3.38-.608-.879-1.555-1.352-2.704-1.352z"/>
        <path fill="#CCC" d="M7.977 31.842L0 23.865l7.977-7.91z"/>
        <path fill="#CDCDCD" d="M15.955 23.865l-7.978-7.91 7.978-7.978z"/>
        <path fill="#9B9B9B" d="M23.865 15.955l-7.91-7.978L23.865 0z"/>
        <path fill="#BEBEBE" d="M15.955 39.82l-7.978-7.978 7.978-7.977z"/>
        <path fill="#9B9B9B" d="M23.865 31.842l-7.91-7.977 7.91-7.91z"/>
        <path fill="#B0B0B0" d="M23.865 47.797l-7.91-7.977 7.91-7.978z"/>
        <path fill="#565656" d="M39.82 31.842l7.977-7.977-7.977-7.91z"/>
        <path fill="#5C5C5C" d="M31.842 23.865l7.978-7.91-7.978-7.978z"/>
        <path fill="#B0B0B0" d="M23.865 15.955l7.977-7.978L23.865 0z"/>
        <path fill="#656565" d="M31.842 39.82l7.978-7.978-7.978-7.977zM23.865 31.842l7.977-7.977-7.977-7.91z"/>
        <path fill="#838383" d="M23.865 47.797l7.977-7.977-7.977-7.978z"/>
    </g>
</svg>
