<svg xmlns="http://www.w3.org/2000/svg" width="18" height="19" viewBox="0 0 18 19">
    <path fill="#05C4E1" fill-rule="nonzero" d="M15.153 11.182c-.393-.396-.867-.608-1.37-.608-.498 0-.975.208-1.385.604l-1.28 1.235c-.105-.055-.21-.106-.311-.157a5.205 5.205 0 0 1-.401-.208c-1.2-.737-2.289-1.697-3.334-2.94-.506-.62-.846-1.14-1.093-1.67.332-.294.64-.6.94-.894.113-.11.226-.223.34-.333.85-.823.85-1.89 0-2.713l-1.106-1.07c-.126-.122-.255-.247-.377-.373a18.84 18.84 0 0 0-.761-.729C4.622.95 4.152.75 3.658.75s-.972.2-1.377.576l-.008.008L.896 2.68a2.83 2.83 0 0 0-.88 1.823c-.097 1.144.252 2.21.52 2.909.655 1.713 1.635 3.3 3.098 5.002a18.984 18.984 0 0 0 6.346 4.81c.932.427 2.175.933 3.565 1.02.085.003.174.007.255.007.935 0 1.721-.325 2.337-.972.004-.008.012-.012.016-.02.21-.247.454-.47.709-.71.174-.16.352-.329.526-.505.401-.404.612-.874.612-1.357 0-.486-.215-.952-.624-1.344l-2.223-2.16zm1.45 4.128c-.004 0-.004.004 0 0-.158.164-.32.313-.494.478-.264.243-.531.498-.782.784-.41.424-.891.623-1.523.623-.06 0-.126 0-.186-.003-1.203-.075-2.321-.53-3.16-.918a17.92 17.92 0 0 1-5.978-4.532c-1.381-1.61-2.305-3.1-2.916-4.7-.377-.976-.515-1.737-.454-2.454.04-.459.223-.839.56-1.164l1.38-1.337c.199-.18.41-.279.616-.279.255 0 .462.15.591.275l.012.012c.248.223.482.454.73.701.125.126.255.251.384.38l1.106 1.07c.43.416.43.8 0 1.216-.117.114-.23.228-.348.337-.34.337-.665.651-1.017.957-.008.008-.016.012-.02.02-.348.337-.284.666-.21.89l.011.035c.288.674.693 1.309 1.309 2.066l.004.003c1.118 1.333 2.296 2.372 3.596 3.168.166.102.337.184.499.263.145.07.283.137.4.207.017.008.033.02.05.028a.901.901 0 0 0 .4.098c.336 0 .547-.204.616-.27l1.385-1.341c.138-.134.356-.294.612-.294.25 0 .457.153.583.286l.008.008 2.232 2.16c.417.4.417.811.004 1.227z"/>
</svg>
