<?xml version="1.0" encoding="UTF-8"?>
<svg width="56px" height="50px" viewBox="0 0 56 50" version="1.1" xmlns="http://www.w3.org/2000/svg" xmlns:xlink="http://www.w3.org/1999/xlink">
    <!-- Generator: Sketch 56.2 (81672) - https://sketch.com -->
    <title>Scamprotection</title>
    <desc>Created with Sketch.</desc>
    <g id="June2019---Updates" stroke="none" stroke-width="1" fill="none" fill-rule="evenodd">
        <g id="Deskltop-Talent Town-Guarantee" transform="translate(-888.000000, -235.000000)">
            <g id="Scamprotection" transform="translate(889.000000, 232.000000)">
                <path d="M17,4 L44,4 C46.209139,4 48,5.790861 48,8 L48,37 C48,39.209139 46.209139,41 44,41 L4,41 C1.790861,41 0,39.209139 0,37 L0,15" id="Rectangle" stroke="#05C4E1" stroke-width="2" transform="translate(24.000000, 22.500000) scale(-1, -1) translate(-24.000000, -22.500000) "></path>
                <path d="M50.6529474,36.5513684 C50.6529474,42.0974737 48.0929474,45.7763158 45.9451579,47.8858947 C43.3974737,50.3883158 40.7841053,51.3616842 40.3265263,51.3912632 C39.8688421,51.3616842 37.2553684,50.3884211 34.7076842,47.8858947 C32.5601053,45.7763158 30,42.0974737 30,36.5513684 L30,31.3675789 C33.6242105,30.3194737 37.0153684,28.8850526 40.3268421,27 C43.5636842,28.8371579 47.1068421,30.3353684 50.6529474,31.3669474 L50.6529474,36.5513684 Z" id="Path" stroke="#05C4E1" stroke-width="2" fill-opacity="0.1" fill="#05C4E1" stroke-linejoin="round"></path>
                <g id="Group" transform="translate(43.000000, 15.000000) rotate(35.000000) translate(-43.000000, -15.000000) translate(36.000000, 2.000000)" stroke="#05C4E1" stroke-width="2">
                    <path d="M2.19700065,20.4532581 L2.20357136,21.7869705 C2.21505113,24.1171124 4.10723793,26 6.43740811,26 C8.76422832,26 10.6504888,24.1137395 10.6504888,21.7869193 L10.6504888,4" id="Path-2" stroke-linecap="round" stroke-linejoin="round"></path>
                    <circle id="Oval" fill-opacity="0.1" fill="#05C4E1" cx="10.7243274" cy="2.5" r="1.5"></circle>
                    <polyline id="Path-3" stroke-linecap="round" stroke-linejoin="round" points="0.0649583266 22.1396398 2.28928576 19.627469 4.46210155 22.170631"></polyline>
                </g>
                <path d="M45.6803289,42.0654869 C45.2025395,41.7341184 44.5466447,41.8532763 44.2155921,42.3310658 C43.89475,42.7942237 43.5311711,43.2445395 43.1344342,43.6696974 C42.8686447,43.9548553 42.5029605,44.2986447 42.1050658,44.6371711 C41.6623289,45.0140132 41.6088553,45.678329 41.9855921,46.1211711 C42.1938026,46.3658026 42.4899079,46.4914869 42.7878026,46.4914869 C43.0289605,46.4914869 43.2713816,46.4090658 43.4695921,46.2404342 C43.9338026,45.8452763 44.3505395,45.4528553 44.6741184,45.1053816 C45.1395921,44.6066447 45.5675921,44.0766447 45.9461184,43.5301184 C46.2771711,43.052329 46.1582237,42.3965395 45.6803289,42.0654869 Z" id="Path" fill="#05C4E1" fill-rule="nonzero"></path>
                <path d="M41.0944342,46.7852763 C40.8474868,46.2589605 40.2209605,46.0324342 39.6944342,46.2792763 L39.6614868,46.2941184 C39.1295921,46.52875 38.88875,47.1502237 39.1235921,47.6821184 C39.2972763,48.0758026 39.68275,48.3100132 40.0870658,48.3100132 C40.2290658,48.3100132 40.3733816,48.2810658 40.5114868,48.2201184 C40.5371711,48.2088553 40.5626447,48.1972763 40.5882237,48.1853816 C41.1145395,47.9384342 41.3411711,47.3118026 41.0944342,46.7852763 Z" id="Path" fill="#05C4E1" fill-rule="nonzero"></path>
                <path d="M45.8645395,33.3082237 C45.4536974,32.8973816 44.7872763,32.8971711 44.3760132,33.3081184 L38.7468553,38.9368553 L35.7970658,35.9868553 C35.3859079,35.5761184 34.7193816,35.5759079 34.3083289,35.9868553 C33.8972763,36.3980132 33.8971711,37.0645395 34.3083289,37.4755921 L38.0025395,41.1699079 C38.2081184,41.3754869 38.4774868,41.478329 38.7468553,41.478329 C39.0162237,41.478329 39.2856974,41.3754869 39.4910658,41.1699079 L45.8644342,34.7969605 C46.2755921,34.3860132 46.2755921,33.7194869 45.8645395,33.3082237 Z" id="Path" fill="#05C4E1" fill-rule="nonzero"></path>
                <polygon id="Stroke-3502" stroke="#05C4E1" stroke-width="2" stroke-linejoin="round" points="4 17 30 17 30 28 4 28"></polygon>
                <path d="M0,13.5 L48,13.5" id="Line" stroke="#05C4E1" stroke-width="2" stroke-linecap="round" stroke-linejoin="round"></path>
                <path d="M15.0241974,9 L44,9" id="Line-Copy" stroke="#05C4E1" stroke-width="2" stroke-linecap="round" stroke-linejoin="round"></path>
                <path d="M4,32.5 L24,32.5" id="Line-Copy-2" stroke="#05C4E1" stroke-width="2" stroke-linecap="round" stroke-linejoin="round"></path>
                <path d="M4,36.5 L19,36.5" id="Line-Copy-3" stroke="#05C4E1" stroke-width="2" stroke-linecap="round" stroke-linejoin="round"></path>
                <path d="M8,24 L12,21" id="Line-Copy-4" stroke="#05C4E1" stroke-width="2" stroke-linecap="round" stroke-linejoin="round"></path>
                <path d="M12,24 L8,21" id="Line-Copy-6" stroke="#05C4E1" stroke-width="2" stroke-linecap="round" stroke-linejoin="round"></path>
                <path d="M10,20 L10,25" id="Line-Copy-5" stroke="#05C4E1" stroke-width="2" stroke-linecap="round" stroke-linejoin="round"></path>
                <path d="M15,24 L19,21" id="Line-Copy-9" stroke="#05C4E1" stroke-width="2" stroke-linecap="round" stroke-linejoin="round"></path>
                <path d="M19,24 L15,21" id="Line-Copy-8" stroke="#05C4E1" stroke-width="2" stroke-linecap="round" stroke-linejoin="round"></path>
                <path d="M17,20 L17,25" id="Line-Copy-7" stroke="#05C4E1" stroke-width="2" stroke-linecap="round" stroke-linejoin="round"></path>
                <path d="M22,24 L26,21" id="Line-Copy-12" stroke="#05C4E1" stroke-width="2" stroke-linecap="round" stroke-linejoin="round"></path>
                <path d="M26,24 L22,21" id="Line-Copy-11" stroke="#05C4E1" stroke-width="2" stroke-linecap="round" stroke-linejoin="round"></path>
                <path d="M24,20 L24,25" id="Line-Copy-10" stroke="#05C4E1" stroke-width="2" stroke-linecap="round" stroke-linejoin="round"></path>
                <circle id="Oval" fill="#05C4E1" cx="4" cy="9" r="1"></circle>
                <circle id="Oval-Copy" fill="#05C4E1" cx="7" cy="9" r="1"></circle>
                <circle id="Oval-Copy-2" fill="#05C4E1" cx="10" cy="9" r="1"></circle>
            </g>
        </g>
    </g>
</svg>