<svg xmlns="http://www.w3.org/2000/svg" width="29" height="29" viewBox="0 0 29 29">
    <g fill="#FFF" fill-rule="nonzero">
        <path d="M28.231 0h-7.663a.765.765 0 0 0-.769.762c0 .42.344.762.769.762h5.82L11.435 16.49a.758.758 0 0 0 .017 1.064.774.774 0 0 0 1.074.008L27.463 2.614V8.36c0 .42.344.762.768.762A.765.765 0 0 0 29 8.36V.762A.765.765 0 0 0 28.231 0z"/>
        <path d="M24.502 16.187a.756.756 0 0 0-.756.755v8.278a2.27 2.27 0 0 1-2.268 2.268H3.78a2.27 2.27 0 0 1-2.268-2.268V7.522A2.27 2.27 0 0 1 3.78 5.254h8.278a.756.756 0 1 0 0-1.512H3.78A3.784 3.784 0 0 0 0 7.522V25.22A3.784 3.784 0 0 0 3.78 29h17.698a3.784 3.784 0 0 0 3.78-3.78v-8.278a.756.756 0 0 0-.756-.755z"/>
    </g>
</svg>
