<?xml version="1.0" encoding="UTF-8"?>
<svg width="32px" height="32px" viewBox="0 0 32 32" version="1.1" xmlns="http://www.w3.org/2000/svg" xmlns:xlink="http://www.w3.org/1999/xlink">
    <!-- Generator: Sketch 54.1 (76490) - https://sketchapp.com -->
    <title>instag</title>
    <desc>Created with Sketch.</desc>
    <g id="instag" stroke="none" stroke-width="1" fill="none" fill-rule="evenodd">
        <path d="M12.2893331,7.05400034 C13.2495266,7.01012506 13.5559785,7 16.0001688,7 C18.444359,7 18.7508109,7.01012506 19.7106669,7.05400034 C20.6688354,7.09787561 21.3229145,7.24975156 21.8956556,7.47216545 C22.4872968,7.70234189 22.9891624,8.01014381 23.4893406,8.51065944 C23.9898562,9.01083757 24.2976581,9.5127032 24.5278345,10.1043444 C24.7502484,10.6770855 24.9024619,11.3311646 24.9459997,12.2893331 C24.9898749,13.2491891 25,13.555641 25,15.9998312 C25,18.4440215 24.9898749,18.7504734 24.9459997,19.7106669 C24.9024619,20.6684979 24.7502484,21.3229145 24.5278345,21.8953181 C24.2976581,22.4872968 23.9898562,22.9891624 23.4893406,23.4893406 C22.9891624,23.9898562 22.4872968,24.2976581 21.8956556,24.527497 C21.3229145,24.7499109 20.6688354,24.9021244 19.7106669,24.9459997 C18.7508109,24.9898749 18.444359,25 16.0001688,25 C13.5559785,25 13.2495266,24.9898749 12.2893331,24.9459997 C11.3315021,24.9021244 10.677423,24.7499109 10.1046819,24.527497 C9.5127032,24.2976581 9.01083757,23.9898562 8.51065944,23.4893406 C8.01014381,22.9891624 7.70267939,22.4872968 7.47250295,21.8953181 C7.25008906,21.3229145 7.09787561,20.6684979 7.05400034,19.7106669 C7.01046257,18.7504734 7,18.4440215 7,15.9998312 C7,13.555641 7.01046257,13.2491891 7.05400034,12.2893331 C7.09787561,11.3311646 7.25008906,10.6770855 7.47250295,10.1043444 C7.70267939,9.5127032 8.01014381,9.01083757 8.51065944,8.51065944 C9.01083757,8.01014381 9.5127032,7.70234189 10.1046819,7.47216545 C10.677423,7.24975156 11.3315021,7.09787561 12.2893331,7.05400034 Z M19.636754,8.67401046 C18.6880356,8.63081019 18.4031838,8.62169764 16.0001688,8.62169764 C13.5971537,8.62169764 13.312302,8.63081019 12.3635835,8.67401046 C11.4857405,8.71383571 11.0091876,8.86064913 10.6919356,8.9838374 C10.272083,9.14718842 9.97238108,9.34192714 9.65715411,9.65715411 C9.34226464,9.97204358 9.14718842,10.2717454 8.9841749,10.6919356 C8.86098663,11.0091876 8.71417321,11.4857405 8.67401046,12.363246 C8.63081019,13.312302 8.62169764,13.5968162 8.62169764,15.9998312 C8.62169764,18.4031838 8.63081019,18.687698 8.67401046,19.636754 C8.71417321,20.5142595 8.86098663,20.9908124 8.9841749,21.3080644 C9.14718842,21.7282546 9.34226464,22.0276189 9.65715411,22.3428459 C9.97238108,22.6577354 10.272083,22.8528116 10.6919356,23.0158251 C11.0091876,23.1390134 11.4857405,23.2858268 12.3635835,23.3259895 C13.312302,23.3691898 13.5968162,23.3783024 16.0001688,23.3783024 C18.4031838,23.3783024 18.6880356,23.3691898 19.636754,23.3259895 C20.5142595,23.2858268 20.9908124,23.1390134 21.3080644,23.0158251 C21.7282546,22.8528116 22.0279564,22.6577354 22.3428459,22.3428459 C22.6580729,22.0276189 22.8531491,21.7282546 23.0161626,21.3080644 C23.1393509,20.9908124 23.2861643,20.5142595 23.3259895,19.636754 C23.3695273,18.687698 23.3783024,18.4031838 23.3783024,15.9998312 C23.3783024,13.5968162 23.3695273,13.312302 23.3259895,12.363246 C23.2861643,11.4857405 23.1393509,11.0091876 23.0161626,10.6919356 C22.8531491,10.2717454 22.6580729,9.97204358 22.3428459,9.65715411 C22.0279564,9.34192714 21.7282546,9.14718842 21.3080644,8.9838374 C20.9908124,8.86064913 20.5142595,8.71383571 19.636754,8.67401046 Z M16.0001688,19.3376934 C17.6569666,19.3376934 19.000225,17.994435 19.000225,16.3372996 C19.000225,14.6805018 17.6569666,13.3375809 16.0001688,13.3375809 C14.3433709,13.3375809 13.0001125,14.6805018 13.0001125,16.3372996 C13.0001125,17.994435 14.3433709,19.3376934 16.0001688,19.3376934 Z M16.0001688,11.7158832 C18.5523597,11.7158832 20.6215851,13.7851087 20.6215851,16.3372996 C20.6215851,18.8901656 18.5523597,20.959391 16.0001688,20.959391 C13.4476403,20.959391 11.3784149,18.8901656 11.3784149,16.3372996 C11.3784149,13.7851087 13.4476403,11.7158832 16.0001688,11.7158832 Z M21.8843493,11.5332946 C21.8843493,12.1299983 21.4007088,12.6133013 20.8043425,12.6133013 C20.2076388,12.6133013 19.7243358,12.1299983 19.7243358,11.5332946 C19.7243358,10.9365909 20.2076388,10.4532878 20.8043425,10.4532878 C21.4007088,10.4532878 21.8843493,10.9365909 21.8843493,11.5332946 Z" id="Combined-Shape" fill="#05C4E1"></path>
    </g>
</svg>