<?xml version="1.0" encoding="UTF-8"?>
<svg width="32px" height="32px" viewBox="0 0 32 32" version="1.1" xmlns="http://www.w3.org/2000/svg" xmlns:xlink="http://www.w3.org/1999/xlink">
    <!-- Generator: Sketch 54.1 (76490) - https://sketchapp.com -->
    <title>tw</title>
    <desc>Created with Sketch.</desc>
    <g id="tw" stroke="none" stroke-width="1" fill="none" fill-rule="evenodd">
        <path d="M26,10.7762426 C25.3373526,11.0773832 24.6258714,11.2811573 23.8791213,11.3722645 C24.6421493,10.9035145 25.2274765,10.1621384 25.5028449,9.27818991 C24.7886507,9.7114707 23.999171,10.0265208 23.1567881,10.1962166 C22.4846452,9.45970883 21.5235691,9 20.4614341,9 C18.4233016,9 16.7697351,10.696263 16.7697351,12.7868602 C16.7697351,13.0838279 16.8009345,13.3724499 16.8646897,13.6485534 C13.7956215,13.4906806 11.0751724,11.9849777 9.25340066,9.6919974 C8.93530276,10.2532455 8.75285429,10.9035145 8.75285429,11.5975983 C8.75285429,12.9099592 9.40464976,14.0693157 10.396247,14.7487945 C9.79125061,14.7300167 9.22084479,14.5582344 8.72233317,14.2765671 L8.72233317,14.3231639 C8.72233317,16.1585219 9.99472474,17.6885664 11.686273,18.0356083 C11.3756359,18.1246291 11.0500772,18.1691395 10.7123102,18.1691395 C10.4742455,18.1691395 10.2429632,18.1461888 10.0184634,18.1016784 C10.4871321,19.6059904 11.8510871,20.7013631 13.4666717,20.7305731 C12.2030973,21.7466617 10.6112514,22.3517248 8.88104299,22.3517248 C8.58261427,22.3517248 8.28825502,22.3350334 8,22.2995642 C9.63389728,23.3726818 11.5750405,24 13.6606504,24 C20.4539734,24 24.1673763,18.2310367 24.1673763,13.2264002 C24.1673763,13.0615727 24.1639851,12.8981361 24.1572026,12.7360905 C24.8795358,12.2019659 25.5055579,11.5350056 26,10.7762426" id="twitter" fill="#05C4E1"></path>
    </g>
</svg>