<svg xmlns="http://www.w3.org/2000/svg" width="34" height="34" viewBox="0 0 34 34">
    <g fill="none" fill-rule="evenodd" stroke="#05C4E1">
        <path stroke-linecap="round" stroke-linejoin="round" d="M33 17c0 8.837-7.163 16-16 16S1 25.837 1 17 8.163 1 17 1s16 7.163 16 16z"/>
        <g transform="translate(5 7)">
            <path d="M12.252.726a.5.5 0 0 0-.504 0L3.447 5.568a.5.5 0 0 0 .252.932H20.3a.5.5 0 0 0 .252-.932L12.252.726zM5.5 8.5h4v7h-4zM14.5 8.5h4v7h-4z"/>
            <rect width="15" height="2" x="4.5" y="6.5" rx="1" transform="matrix(1 0 0 -1 0 15)"/>
            <rect width="17" height="3" x="3.5" y="15.5" rx="1" transform="matrix(1 0 0 -1 0 34)"/>
        </g>
    </g>
</svg>
