<svg xmlns="http://www.w3.org/2000/svg" width="34" height="34" viewBox="0 0 34 34">
    <g fill="none" fill-rule="evenodd" stroke="#05C4E1" transform="translate(1 1)">
        <path d="M32 16c0 8.837-7.163 16-16 16S0 24.837 0 16 7.163 0 16 0s16 7.163 16 16z"/>
        <rect width="15" height="12" x="7.5" y="9.5" rx="1"/>
        <path fill="#FFF" fill-rule="nonzero" stroke-width=".857" d="M25.25 18.863c.18.032.35.12.51.264a.69.69 0 0 1 .24.533v.75c0 .203-.08.367-.24.492a1.4 1.4 0 0 1-.51.258l-.973.235c-.039.117-.08.228-.123.334a3.206 3.206 0 0 1-.146.31l.515.867c.102.157.164.336.188.54a.613.613 0 0 1-.188.527l-.527.527a.677.677 0 0 1-.539.205 1.104 1.104 0 0 1-.55-.17l-.845-.539c-.109.055-.218.106-.328.152-.109.047-.226.09-.351.13l-.211.972c-.031.18-.12.35-.264.51a.69.69 0 0 1-.533.24h-.75a.595.595 0 0 1-.492-.24 1.4 1.4 0 0 1-.258-.51l-.234-.96a4.801 4.801 0 0 1-.375-.136 3.853 3.853 0 0 1-.364-.17l-.867.551c-.148.102-.33.158-.545.17a.65.65 0 0 1-.533-.205l-.539-.527a.628.628 0 0 1-.176-.528 1.33 1.33 0 0 1 .176-.539l.55-.914a6.454 6.454 0 0 1-.134-.287 2.423 2.423 0 0 1-.111-.31l-.973-.235a1.4 1.4 0 0 1-.51-.258.595.595 0 0 1-.24-.492v-.75c0-.21.08-.389.24-.533.16-.145.33-.232.51-.264l.96-.21c.032-.11.071-.22.118-.329.047-.11.094-.215.14-.316l-.55-.914a1.33 1.33 0 0 1-.176-.54.628.628 0 0 1 .176-.527l.539-.527a.65.65 0 0 1 .533-.205c.215.012.397.068.545.17l.867.55a4.26 4.26 0 0 1 .727-.304l.246-.961c.04-.18.121-.35.246-.51a.606.606 0 0 1 .504-.24h.75c.21 0 .387.08.527.24.141.16.23.326.27.498l.21.985a5.226 5.226 0 0 1 .68.28l.844-.538c.157-.102.34-.158.551-.17.211-.012.39.057.54.205l.526.527c.149.149.211.325.188.528a1.233 1.233 0 0 1-.188.539l-.515.867c.055.11.107.22.158.334.05.113.092.232.123.357l.961.211zM20 21.5c.414 0 .768-.146 1.06-.44.294-.292.44-.646.44-1.06 0-.414-.146-.768-.44-1.06A1.445 1.445 0 0 0 20 18.5c-.414 0-.768.146-1.06.44-.294.292-.44.646-.44 1.06 0 .414.146.768.44 1.06.292.294.646.44 1.06.44z"/>
        <path stroke-linecap="round" stroke-linejoin="bevel" d="M11.5 8.3v2.4M18.5 8.3v2.4"/>
        <path stroke-linecap="round" stroke-linejoin="round" d="M10 14.271l1.697 1.473L14.653 12"/>
    </g>
</svg>
