<svg xmlns="http://www.w3.org/2000/svg" width="34" height="34" viewBox="0 0 34 34">
    <g fill="none" fill-rule="evenodd" stroke="#05C4E1" stroke-linecap="round" stroke-linejoin="round">
        <path d="M33 17c0 8.837-7.163 16-16 16S1 25.837 1 17 8.163 1 17 1s16 7.163 16 16z"/>
        <path d="M22.657 10.426c3.124 3.236 3.124 8.481 0 11.716L17 28l-5.657-5.858c-3.124-3.235-3.124-8.48 0-11.716 3.124-3.235 8.19-3.235 11.314 0zm-3.243 5.858c0 1.381-1.08 2.5-2.414 2.5-1.333 0-2.414-1.119-2.414-2.5 0-1.38 1.08-2.5 2.414-2.5 1.333 0 2.414 1.12 2.414 2.5z"/>
    </g>
</svg>
