<svg xmlns="http://www.w3.org/2000/svg" width="34" height="34" viewBox="0 0 34 34">
    <g fill="none" fill-rule="evenodd">
        <path stroke="#05C4E1" d="M33 17c0 8.837-7.163 16-16 16S1 25.837 1 17 8.163 1 17 1s16 7.163 16 16z"/>
        <g transform="translate(11 5.139)">
            <path stroke="#05C4E1" d="M.31 7.85l5.066-4.817a1 1 0 0 1 1.387.008l4.935 4.81a1 1 0 0 1 .302.717V21.86a1 1 0 0 1-1 1H1a1 1 0 0 1-1-1V8.575a1 1 0 0 1 .31-.725z"/>
            <circle cx="6" cy="7.861" r="1" stroke="#05C4E1"/>
            <path stroke="#05C4E1" stroke-linecap="round" stroke-linejoin="round" d="M6 7.861l5.167-4.704a1.801 1.801 0 0 0 .036-2.63 1.886 1.886 0 0 0-2.692.078L8.414.71"/>
            <path fill="#05C4E1" fill-rule="nonzero" d="M8.194 19.08c.087-.164.23-.247.429-.247.139 0 .258.05.357.15.1.1.15.219.15.357a.468.468 0 0 1-.052.234l-.494.988a.523.523 0 0 1-.468.299H3.93a.488.488 0 0 1-.37-.143.506.506 0 0 1-.137-.364c0-.043.009-.108.026-.195.485-1.135.728-2.253.728-3.354H3.41a.488.488 0 0 1-.357-.15.503.503 0 0 1-.15-.37c0-.138.048-.255.143-.35a.493.493 0 0 1 .364-.144h.676c-.26-.71-.435-1.228-.527-1.553a3.671 3.671 0 0 1-.136-.995c0-.459.115-.884.345-1.274.23-.39.539-.7.929-.93.39-.229.815-.344 1.274-.344.832 0 1.512.304 2.041.91.2.217.299.4.299.546a.5.5 0 0 1-.507.507c-.147 0-.26-.047-.338-.143a2.713 2.713 0 0 0-.683-.624 1.516 1.516 0 0 0-.799-.208c-.442 0-.81.154-1.105.462a1.565 1.565 0 0 0-.442 1.124c0 .278.039.555.117.832.078.278.212.694.403 1.248l.156.442h1.885c.147 0 .266.046.357.137.092.09.137.21.137.357 0 .148-.048.271-.143.37a.467.467 0 0 1-.351.15H5.191c0 .997-.178 2.011-.533 3.042h3.133l.403-.767z"/>
        </g>
    </g>
</svg>
