<svg xmlns="http://www.w3.org/2000/svg" width="60" height="47" viewBox="0 0 60 47">
    <g fill="none" fill-rule="evenodd">
        <path fill="#FFF" d="M1 1h58v37.174H1z"/>
        <path stroke="#05C4E1" stroke-linecap="round" stroke-linejoin="round" stroke-width="2" d="M1 1h58v37.174H1z"/>
        <path fill="#FFF" d="M15 28.391h39v4.892H15z"/>
        <path stroke="#05C4E1" stroke-linejoin="round" stroke-width="2" d="M15 28.391h39v4.892H15z"/>
        <path fill="#05C4E1" fill-opacity=".1" d="M50 4.913h4v3.913h-4z"/>
        <path stroke="#05C4E1" stroke-linejoin="round" stroke-width="2" d="M50 4.913h4v3.913h-4z"/>
        <path fill="#05C4E1" fill-opacity=".1" d="M41.266 28.391c.162-.107.33-.206.488-.318-.289-.25-.61-.47-.964-.642l-4.664-2.953c-.693-.34-2-.22-2-.978v-2.058c.151-.169 1.323-.866 1.507-1.12.731-1.01 1.477-2.121 1.86-3.286.688-.208 1.633-.83 1.633-1.569v-2.196c0-.19-.103-.373-.248-.544-.464-.544-.752-1.21-.752-1.918V9.804s-.158-5.87-7-5.87-7 5.87-7 5.87v1.005c0 .708-.288 1.374-.752 1.918-.145.17-.248.354-.248.544v2.196c0 .58.75 1.088 1.215 1.383.561 2.39 3.785 4.11 3.785 4.11v2.007c0 .733-1.837 1.407-2.495 1.757l-4.707 2.672c-.342.182-.648.411-.924.666.163.115.336.219.503.33h20.763z"/>
        <path stroke="#05C4E1" stroke-linejoin="round" stroke-width="2" d="M41.266 28.391c.162-.107.33-.206.488-.318-.289-.25-.61-.47-.964-.642l-4.664-2.953c-.693-.34-2-.22-2-.978v-2.058c.151-.169 1.323-.866 1.507-1.12.731-1.01 1.477-2.121 1.86-3.286.688-.208 1.633-.83 1.633-1.569v-2.196c0-.19-.103-.373-.248-.544-.464-.544-.752-1.21-.752-1.918V9.804s-.158-5.87-7-5.87-7 5.87-7 5.87v1.005c0 .708-.288 1.374-.752 1.918-.145.17-.248.354-.248.544v2.196c0 .58.75 1.088 1.215 1.383.561 2.39 3.785 4.11 3.785 4.11v2.007c0 .733-1.837 1.407-2.495 1.757l-4.707 2.672c-.342.182-.648.411-.924.666.163.115.336.219.503.33h20.763z"/>
        <path fill="#FFF" d="M6 33.283h5V28.39H6z"/>
        <path stroke="#05C4E1" stroke-linejoin="round" stroke-width="2" d="M6 33.283h5V28.39H6z"/>
        <path fill="#05C4E1" fill-opacity=".1" d="M32 43.065v-4.891h-4v4.891h-5V46h14v-2.935z"/>
        <path stroke="#05C4E1" stroke-linecap="round" stroke-linejoin="round" stroke-width="2" d="M32 43.065v-4.891h-4v4.891h-5V46h14v-2.935z"/>
    </g>
</svg>
