<svg xmlns="http://www.w3.org/2000/svg" width="18" height="15" viewBox="0 0 18 15">
    <g fill="#05C4E1" fill-rule="nonzero">
        <path d="M15.78.723H2.198C.986.723 0 1.728 0 2.965v9.47c0 1.237.986 2.242 2.198 2.242h13.578c1.212 0 2.198-1.005 2.198-2.242V2.97c.004-1.237-.982-2.246-2.194-2.246zm1.194 11.712c0 .672-.536 1.218-1.194 1.218H2.198a1.207 1.207 0 0 1-1.194-1.218V2.97c0-.672.536-1.218 1.194-1.218h13.578c.658 0 1.194.546 1.194 1.218v9.466h.004z"/>
        <path d="M11.336 7.583L15.73 3.56a.522.522 0 0 0 .038-.725.498.498 0 0 0-.71-.038l-6.063 5.55-1.182-1.077a.748.748 0 0 0-.09-.083L2.912 2.794a.495.495 0 0 0-.71.042.519.519 0 0 0 .04.725L6.69 7.617l-4.429 4.23a.522.522 0 0 0-.022.725.498.498 0 0 0 .71.027l4.496-4.292 1.22 1.112a.496.496 0 0 0 .67-.004l1.253-1.146 4.47 4.333a.494.494 0 0 0 .71-.019.522.522 0 0 0-.018-.725l-4.414-4.275z"/>
    </g>
</svg>
