<svg xmlns="http://www.w3.org/2000/svg" xmlns:xlink="http://www.w3.org/1999/xlink" width="52" height="43" viewBox="0 0 52 43">
    <defs>
        <path id="a" d="M0 .436h20.856v21.347H0z"/>
        <path id="c" d="M.071.436h20.855v21.347H.072z"/>
    </defs>
    <g fill="none" fill-rule="evenodd">
        <g>
            <mask id="b" fill="#fff">
                <use xlink:href="#a"/>
            </mask>
            <path fill="#FEFEFE" d="M20.856 11.11c0-.512-.047-1.06-.141-1.673A.729.729 0 0 0 20 8.813h-7.476a.73.73 0 0 0-.724.738v3.117a.73.73 0 0 0 .724.737h3.398c-.88 2.272-3.009 3.79-5.45 3.79-3.293 0-5.971-2.73-5.971-6.085 0-3.356 2.678-6.087 5.97-6.087 1.591 0 3.088.631 4.215 1.777A.715.715 0 0 0 15.71 6.8l2.16-2.2a.745.745 0 0 0-.001-1.045C15.89 1.544 13.264.436 10.472.436 4.698.436 0 5.224 0 11.11c0 5.885 4.698 10.673 10.472 10.673 5.726 0 10.384-4.788 10.384-10.673" mask="url(#b)"/>
        </g>
        <g transform="translate(31)">
            <mask id="d" fill="#fff">
                <use xlink:href="#c"/>
            </mask>
            <path fill="#FEFEFE" d="M20.927 11.11c0-.512-.047-1.06-.141-1.673a.729.729 0 0 0-.715-.624h-7.476a.73.73 0 0 0-.724.738v3.117a.73.73 0 0 0 .724.737h3.398c-.88 2.272-3.009 3.79-5.45 3.79-3.293 0-5.97-2.73-5.97-6.085 0-3.356 2.677-6.087 5.97-6.087 1.59 0 3.087.631 4.214 1.777A.715.715 0 0 0 15.78 6.8l2.16-2.2a.745.745 0 0 0-.001-1.045C15.962 1.544 13.335.436 10.543.436 4.769.436.07 5.224.07 11.11c0 5.885 4.698 10.673 10.472 10.673 5.726 0 10.384-4.788 10.384-10.673" mask="url(#d)"/>
        </g>
        <path fill="#FEFEFE" d="M28 20.287V1.713C28 1.32 27.66 1 27.24 1h-3.48c-.42 0-.76.319-.76.713v18.574c0 .393.34.713.76.713h3.48c.42 0 .76-.32.76-.713"/>
        <path fill="#05C4E1" d="M17.857 25.992a.593.593 0 0 0 .083-.644.626.626 0 0 0-.565-.348H1.785a.615.615 0 0 0-.623.606v2.459c0 .334.28.606.624.606H10.6L.142 41.009a.593.593 0 0 0-.082.644.626.626 0 0 0 .564.347h15.86a.615.615 0 0 0 .626-.606v-2.458a.616.616 0 0 0-.625-.607H7.37l10.486-12.337z"/>
        <path fill="#05C4E1" d="M34 29.467A9.149 9.149 0 0 0 26.127 25C21.095 25 17 29.038 17 34s4.095 9 9.127 9c3.357 0 6.287-1.8 7.873-4.467A10.139 10.139 0 0 1 32.924 34c0-1.627.394-3.162 1.076-4.533M31.332 34c0 2.83-2.334 5.132-5.205 5.132-2.87 0-5.204-2.302-5.204-5.132 0-2.83 2.334-5.132 5.204-5.132 2.87 0 5.205 2.302 5.205 5.132M52 34c0-4.962-4.038-9-9-9s-9 4.038-9 9c0 4.963 4.038 9 9 9s9-4.037 9-9m-3.868 0A5.138 5.138 0 0 1 43 39.132 5.138 5.138 0 0 1 37.868 34 5.138 5.138 0 0 1 43 28.868 5.138 5.138 0 0 1 48.132 34"/>
    </g>
</svg>
