<svg xmlns="http://www.w3.org/2000/svg" width="52" height="48" viewBox="0 0 52 48">
    <g fill="none" fill-rule="evenodd">
        <path fill="#05C4E1" fill-opacity=".1" d="M25.85 9.126c2.019-4.783 6.628-8.125 11.99-8.125 7.224 0 12.426 6.179 13.08 13.543 0 0 .353 1.829-.424 5.12-1.058 4.481-3.545 8.464-6.898 11.502L25.85 47 8.401 31.165c-3.353-3.038-5.839-7.021-6.897-11.503-.777-3.29-.424-5.119-.424-5.119C1.734 7.179 6.935 1 14.159 1c5.363 0 9.673 3.343 11.691 8.126z"/>
        <path stroke="#05C4E1" stroke-linejoin="round" stroke-width="2" d="M25.85 9.126c2.019-4.783 6.628-8.125 11.99-8.125 7.224 0 12.426 6.179 13.08 13.543 0 0 .353 1.829-.424 5.12-1.058 4.481-3.545 8.464-6.898 11.502L25.85 47 8.401 31.165c-3.353-3.038-5.839-7.021-6.897-11.503-.777-3.29-.424-5.119-.424-5.119C1.734 7.179 6.935 1 14.159 1c5.363 0 9.673 3.343 11.691 8.126z"/>
        <path stroke="#05C4E1" stroke-linecap="round" stroke-linejoin="round" stroke-width="2" d="M7 16c0-4.975 4.025-9 9-9"/>
    </g>
</svg>
