<svg xmlns="http://www.w3.org/2000/svg" width="18" height="18" viewBox="0 0 18 18">
    <path fill="#05C4E1" fill-rule="nonzero" stroke="#05C4E1" stroke-width=".5" d="M16.516 3.094c.135.041.25.122.343.242.094.12.141.253.141.398v12.813a.397.397 0 0 1-.102.281.337.337 0 0 1-.32.102.257.257 0 0 0-.062-.008L11.5 14.953 6.516 16.97l-5.032-1.985a.687.687 0 0 1-.343-.242.631.631 0 0 1-.141-.398V1.375a.37.37 0 0 1 .102-.273A.35.35 0 0 1 1.359 1h.063c.02 0 .042.005.062.016l5.032 1.968L11.5 1.016l5.016 2.078zM7 3.813v11.921l4-1.593V2.25L7 3.813zm-5-1.47v11.75l4 1.626V3.813l-4-1.47zm14 13.298V3.984l-4-1.718V14.14l4 1.5z"/>
</svg>
