<svg xmlns="http://www.w3.org/2000/svg" width="123" height="32" viewBox="0 0 123 32">
    <path fill="#7B7B7B" fill-rule="nonzero" d="M24.07 7.126H1.204a1.16 1.16 0 0 1-1.17-1.17V1.448c0-.654.516-1.17 1.17-1.17H24.07c.654 0 1.17.516 1.17 1.17v4.508c0 .654-.55 1.17-1.17 1.17zM55.23 30.491v-4.508a1.16 1.16 0 0 0-1.17-1.17H31.782a1.16 1.16 0 0 0-1.17 1.17v4.508c0 .654.516 1.17 1.17 1.17h22.279a1.16 1.16 0 0 0 1.17-1.17zM9.228 24.813l8.127-8.98a1.175 1.175 0 0 0-.035-1.618l-3.202-3.2a1.165 1.165 0 0 0-1.687.034L.31 24.469a1.09 1.09 0 0 0-.31.792v5.23c0 .654.517 1.17 1.17 1.17h22.865a1.16 1.16 0 0 0 1.17-1.17v-4.508a1.16 1.16 0 0 0-1.17-1.17H9.228zM55.231 5.956V1.448a1.16 1.16 0 0 0-1.17-1.17H31.782a1.16 1.16 0 0 0-1.17 1.17v16.758c0 .654.516 1.17 1.17 1.17h17.802a1.16 1.16 0 0 0 1.171-1.17v-4.473a1.16 1.16 0 0 0-1.17-1.17H37.463V7.126H54.06a1.16 1.16 0 0 0 1.17-1.17zm25.895 17.24l3.202 3.2a1.177 1.177 0 0 1-.069 1.721c-6.44 5.471-16.184 5.058-22.072-1.308-5.647-6.056-5.647-15.588 0-21.679C68.075-1.236 77.82-1.683 84.26 3.822c.516.448.55 1.24.069 1.721l-3.202 3.2a1.203 1.203 0 0 1-1.55.104c-3.719-2.96-9.263-2.616-12.534 1.1-3.03 3.407-3.03 8.638 0 12.045 3.271 3.716 8.815 4.095 12.534 1.1.482-.343 1.136-.309 1.55.104zm41.526-7.226c0 8.81-7.162 15.967-15.977 15.967-8.815 0-15.977-7.158-15.977-15.967 0-8.81 7.162-15.967 15.977-15.967 8.815 0 15.977 7.157 15.977 15.967zm-6.852 0c0-5.024-4.097-9.12-9.125-9.12-5.027 0-9.125 4.096-9.125 9.12 0 5.024 4.098 9.119 9.125 9.119a9.116 9.116 0 0 0 9.125-9.12zm-28.51 2.236v-4.473a1.16 1.16 0 0 0-1.172-1.17H73.137a1.16 1.16 0 0 0-1.17 1.17v4.473c0 .654.516 1.17 1.17 1.17h12.981a1.16 1.16 0 0 0 1.171-1.17z"/>
</svg>
