<svg xmlns="http://www.w3.org/2000/svg" xmlns:xlink="http://www.w3.org/1999/xlink" width="34" height="24" viewBox="0 0 34 24">
    <defs>
        <path id="a" d="M0 .027h13.595v13.485H0z"/>
    </defs>
    <g fill="none" fill-rule="evenodd">
        <rect width="33" height="23" x=".5" y=".5" fill="#FFF" stroke="#E2E2E2" rx="2"/>
        <path fill="#F79F1A" d="M27.98 10.78c0 3.725-3.043 6.743-6.797 6.743-3.754 0-6.797-3.018-6.797-6.742s3.043-6.742 6.797-6.742c3.754 0 6.798 3.018 6.798 6.742"/>
        <g transform="translate(6 4.012)">
            <mask id="b" fill="#fff">
                <use xlink:href="#a"/>
            </mask>
            <path fill="#EA001B" d="M13.595 6.77c0 3.723-3.043 6.742-6.797 6.742C3.043 13.512 0 10.493 0 6.769 0 3.046 3.043.027 6.798.027c3.754 0 6.797 3.019 6.797 6.742" mask="url(#b)"/>
        </g>
        <path fill="#FF5F01" d="M16.99 5.473a6.71 6.71 0 0 0 0 10.616 6.712 6.712 0 0 0 0-10.616"/>
        <path fill="#F79F1A" d="M27.679 14.74v-.516h.154v-.105h-.393v.105h.155v.516h.084zm.761 0v-.622h-.12l-.138.428-.139-.428h-.12v.622h.085v-.47l.13.406h.088l.13-.406v.47h.084z"/>
        <path fill="#000" d="M7.512 20.858h-.386v-1.782h.379v.218s.332-.266.529-.263c.384.007.613.33.613.33s.185-.33.605-.33c.62 0 .71.562.71.562v1.258h-.37v-1.108s.001-.337-.4-.337c-.417 0-.455.337-.455.337v1.108h-.385v-1.116s-.037-.352-.386-.352c-.453 0-.461.36-.461.36l.007 1.115zM19.243 19.031c-.198-.003-.53.262-.53.262v-.216h-.378v1.781h.386l-.008-1.115s.009-.359.462-.359c.084 0 .149.02.2.051v-.001l.126-.347a.698.698 0 0 0-.258-.056M24.676 19.031c-.197-.003-.53.262-.53.262v-.216h-.378v1.781h.386l-.007-1.115s.008-.359.461-.359c.084 0 .15.02.201.051v-.001l.126-.347a.698.698 0 0 0-.259-.056M11.284 19.387c.31 0 .562.267.562.596 0 .329-.252.594-.562.594-.31 0-.56-.265-.56-.594 0-.329.25-.596.56-.596zm-.074-.363c-.577 0-.883.514-.884.943-.002.44.347.947.9.947.323 0 .588-.236.588-.236l-.001.182h.38v-1.784h-.381v.225s-.25-.277-.602-.277zM22.357 19.387c.31 0 .561.267.561.596 0 .329-.251.594-.561.594-.31 0-.56-.265-.56-.594 0-.329.25-.596.56-.596m-.074-.363c-.578 0-.883.514-.885.943-.001.44.348.947.9.947.323 0 .588-.236.588-.236v.182h.38v-1.784h-.382v.225s-.249-.277-.601-.277M26.002 19.387c.31 0 .562.267.562.596 0 .329-.252.594-.562.594-.31 0-.56-.265-.56-.594 0-.329.25-.596.56-.596m-.074-.363c-.577 0-.883.514-.884.943-.002.44.348.947.9.947.323 0 .588-.236.588-.236v.182h.379v-2.488h-.381v.929s-.25-.277-.602-.277M13.351 20.918c-.393 0-.756-.24-.756-.24l.166-.254s.344.157.59.157c.16 0 .428-.05.431-.21.004-.167-.45-.216-.45-.216s-.677-.01-.677-.562c0-.347.338-.569.772-.569.25 0 .718.217.718.217l-.189.292s-.361-.143-.552-.15c-.161-.005-.356.071-.356.21 0 .378 1.127-.03 1.127.734 0 .5-.459.591-.824.591M14.802 18.56v.518h-.336v.375h.336v.896s-.03.606.628.606c.182 0 .539-.133.539-.133l-.153-.39s-.141.12-.301.116c-.305-.008-.296-.2-.296-.2v-.895h.627v-.375h-.627v-.518h-.417zM17.03 19.396h.046c.463 0 .46.433.46.433H16.6s-.022-.408.43-.433m.057-.35c-.62 0-.929.505-.926.943.002.45.281.957.963.957.291 0 .7-.253.7-.253l-.176-.303s-.279.196-.524.196c-.492 0-.524-.476-.524-.476h1.316s.098-1.064-.83-1.064M21.001 20.385l.177.35s-.28.18-.594.18c-.65 0-1.01-.485-1.01-.943 0-.72.574-.932.962-.932.353 0 .658.202.658.202l-.198.349s-.12-.185-.47-.185-.535.299-.535.582c0 .318.215.588.54.588.255 0 .47-.19.47-.19M28.036 20.942a.08.08 0 0 1 .063.025c.015.016.023.041.023.074 0 .034-.008.059-.023.076a.08.08 0 0 1-.063.025h-.114v-.2h.114zm-.006-.08h-.201v.43h.093v-.16h.042l.133.16h.112l-.143-.162a.175.175 0 0 0 .103-.043.118.118 0 0 0 .036-.088.124.124 0 0 0-.046-.1.203.203 0 0 0-.129-.038zm-.028.579a.36.36 0 0 1-.261-.618.37.37 0 0 1 .261-.105.362.362 0 0 1 .363.36.36.36 0 0 1-.363.363zm0-.827a.487.487 0 0 0-.342.136.456.456 0 0 0 0 .656.486.486 0 0 0 .68 0 .458.458 0 0 0 0-.656.483.483 0 0 0-.338-.136z"/>
    </g>
</svg>
