<?xml version="1.0" encoding="UTF-8"?>
<svg width="54px" height="49px" viewBox="0 0 54 49" version="1.1" xmlns="http://www.w3.org/2000/svg" xmlns:xlink="http://www.w3.org/1999/xlink">
    <!-- Generator: Sketch 56.2 (81672) - https://sketch.com -->
    <title>Secure payments</title>
    <desc>Created with Sketch.</desc>
    <g id="June2019---Updates" stroke="none" stroke-width="1" fill="none" fill-rule="evenodd">
        <g id="Deskltop-Talent Town-Guarantee" transform="translate(-249.000000, -239.000000)" fill="#05C4E1">
            <g id="Why" transform="translate(248.000000, 235.000000)">
                <g id="Secure-payments" transform="translate(1.000000, 4.000000)">
                    <path d="M47.5789474,31.4756842 C47.5789474,37.0217895 45.0189474,40.7006316 42.8711579,42.8102105 C40.3234737,45.3126316 37.7101053,46.286 37.2525263,46.3155789 C36.7948421,46.286 34.1813684,45.3127368 31.6336842,42.8102105 C29.4861053,40.7006316 26.926,37.0217895 26.926,31.4756842 L26.926,26.2918947 C30.5502105,25.2437895 33.9413684,23.8093684 37.2528421,21.9243158 C40.4896842,23.7614737 44.0328421,25.2596842 47.5789474,26.2912632 L47.5789474,31.4756842 Z" id="Path" fill-opacity="0.1"></path>
                    <polygon id="Path" fill-opacity="0.1" points="51.7895789 12.6315789 2.10526316 12.6315789 2.10526316 8.42126316 51.7895789 8.42126316"></polygon>
                    <path d="M42.8463158,37.8126316 C42.3685263,37.4812632 41.7126316,37.6004211 41.3815789,38.0782105 C41.0607368,38.5413684 40.6971579,38.9916842 40.3004211,39.4168421 C40.0346316,39.702 39.6689474,40.0457895 39.2710526,40.3843158 C38.8283158,40.7611579 38.7748421,41.4254737 39.1515789,41.8683158 C39.3597895,42.1129474 39.6558947,42.2386316 39.9537895,42.2386316 C40.1949474,42.2386316 40.4373684,42.1562105 40.6355789,41.9875789 C41.0997895,41.5924211 41.5165263,41.2 41.8401053,40.8525263 C42.3055789,40.3537895 42.7335789,39.8237895 43.1121053,39.2772632 C43.4431579,38.7994737 43.3242105,38.1436842 42.8463158,37.8126316 Z" id="Path" fill-rule="nonzero"></path>
                    <path d="M38.2604211,42.5324211 C38.0134737,42.0061053 37.3869474,41.7795789 36.8604211,42.0264211 L36.8274737,42.0412632 C36.2955789,42.2758947 36.0547368,42.8973684 36.2895789,43.4292632 C36.4632632,43.8229474 36.8487368,44.0571579 37.2530526,44.0571579 C37.3950526,44.0571579 37.5393684,44.0282105 37.6774737,43.9672632 C37.7031579,43.956 37.7286316,43.9444211 37.7542105,43.9325263 C38.2805263,43.6855789 38.5071579,43.0589474 38.2604211,42.5324211 Z" id="Path" fill-rule="nonzero"></path>
                    <path d="M50.7501053,0.000105263158 L3.14473684,0.000105263158 C1.41063158,0.000105263158 0,1.41094737 0,3.14484211 L0,32.6450526 C0,34.3788421 1.41063158,35.7895789 3.14473684,35.7895789 L25.3116842,35.7895789 C26.2513684,39.7653684 28.3763158,42.5811579 30.2334737,44.3851579 C32.9442105,47.0186316 36.0515789,48.4210526 37.2525263,48.4210526 C38.4533684,48.4210526 41.5607368,47.0187368 44.2715789,44.3852632 C46.1287368,42.5811579 48.2537895,39.7653684 49.1933684,35.7896842 L50.7501053,35.7896842 C52.4841053,35.7896842 53.8948421,34.3789474 53.8948421,32.6451579 L53.8948421,3.14484211 C53.8948421,1.41094737 52.4841053,0.000105263158 50.7501053,0.000105263158 Z M47.5789474,31.4756842 C47.5789474,37.0217895 45.0189474,40.7006316 42.8711579,42.8102105 C40.3234737,45.3126316 37.7101053,46.286 37.2525263,46.3155789 C36.7948421,46.286 34.1813684,45.3127368 31.6336842,42.8102105 C29.4861053,40.7006316 26.926,37.0217895 26.926,31.4756842 L26.926,26.2918947 C30.5502105,25.2437895 33.9413684,23.8093684 37.2528421,21.9243158 C40.4896842,23.7614737 44.0328421,25.2596842 47.5789474,26.2912632 L47.5789474,31.4756842 Z M51.7895789,32.6450526 C51.7895789,33.2181053 51.3231579,33.6843158 50.7501053,33.6843158 L49.5594737,33.6843158 C49.6401053,32.9789474 49.6843158,32.2433684 49.6843158,31.4756842 L49.6843158,25.4937895 C49.6843158,25.0186316 49.366,24.6025263 48.9075789,24.478 C45.0851579,23.44 41.2387368,21.8225263 37.7842105,19.8005263 C37.4557895,19.6083158 37.0492632,19.6085263 36.7206316,19.8007368 C33.1682105,21.8801053 29.5297895,23.4098947 25.5974737,24.478 C25.1390526,24.6026316 24.8207368,25.0187368 24.8207368,25.4937895 L24.8207368,31.4756842 C24.8207368,32.2433684 24.8648421,32.9789474 24.9455789,33.6843158 L3.14473684,33.6843158 C2.57157895,33.6843158 2.10526316,33.218 2.10526316,32.6450526 L2.10526316,14.7367368 L51.7895789,14.7367368 L51.7895789,32.6450526 Z M51.7895789,12.6315789 L2.10526316,12.6315789 L2.10526316,8.42126316 L51.7895789,8.42126316 L51.7895789,12.6315789 Z M51.7895789,6.31589474 L2.10526316,6.31589474 L2.10526316,3.14484211 C2.10526316,2.57168421 2.57157895,2.10536842 3.14473684,2.10536842 L50.7501053,2.10536842 C51.3231579,2.10536842 51.7895789,2.57168421 51.7895789,3.14484211 L51.7895789,6.31589474 Z" id="Shape" fill-rule="nonzero"></path>
                    <path d="M12.6312632,22.1055789 C11.9966316,22.1055789 11.37,22.2338947 10.79,22.4785263 C10.2233684,22.2384211 9.60063158,22.1055789 8.94757895,22.1055789 C6.33568421,22.1055789 4.21063158,24.2304211 4.21063158,26.8422105 C4.21063158,29.454 6.33557895,31.5790526 8.94757895,31.5790526 C9.60063158,31.5790526 10.2233684,31.4462105 10.7898947,31.2061053 C11.37,31.4507368 11.9966316,31.5790526 12.6312632,31.5790526 C15.2432632,31.5790526 17.3683158,29.454 17.3683158,26.8422105 C17.3683158,24.2304211 15.2432632,22.1055789 12.6312632,22.1055789 Z M8.94757895,29.4737895 C7.49642105,29.4737895 6.31589474,28.2933684 6.31589474,26.8422105 C6.31589474,25.3911579 7.49642105,24.2108421 8.94757895,24.2108421 C10.3985263,24.2108421 11.5790526,25.3911579 11.5790526,26.8422105 C11.5790526,28.2932632 10.3985263,29.4737895 8.94757895,29.4737895 Z M12.8922105,29.4609474 C13.3922105,28.7103158 13.6843158,27.8097895 13.6843158,26.8423158 C13.6843158,25.8748421 13.3922105,24.9745263 12.8923158,24.2238947 C14.2212632,24.3552632 15.2629474,25.4794737 15.2629474,26.8423158 C15.2629474,28.2051579 14.2212632,29.3294737 12.8922105,29.4609474 Z" id="Shape" fill-rule="nonzero"></path>
                    <path d="M10.6774737,17.3685263 L5.26305263,17.3685263 C4.68168421,17.3685263 4.21042105,17.8397895 4.21042105,18.4211579 C4.21042105,19.0024211 4.68168421,19.4737895 5.26305263,19.4737895 L10.6774737,19.4737895 C11.2588421,19.4737895 11.7301053,19.0023158 11.7301053,18.4211579 C11.7301053,17.8397895 11.2588421,17.3685263 10.6774737,17.3685263 Z" id="Path" fill-rule="nonzero"></path>
                    <path d="M13.7890526,17.3685263 L13.7391579,17.3685263 C13.1577895,17.3685263 12.6865263,17.8397895 12.6865263,18.4211579 C12.6865263,19.0024211 13.1577895,19.4737895 13.7391579,19.4737895 L13.7890526,19.4737895 C14.3703158,19.4737895 14.8416842,19.0023158 14.8416842,18.4211579 C14.8416842,17.8397895 14.3703158,17.3685263 13.7890526,17.3685263 Z" id="Path" fill-rule="nonzero"></path>
                    <path d="M43.0305263,29.0553684 C42.6196842,28.6445263 41.9532632,28.6443158 41.542,29.0552632 L35.9128421,34.684 L32.9630526,31.734 C32.5518947,31.3232632 31.8853684,31.3230526 31.4743158,31.734 C31.0632632,32.1451579 31.0631579,32.8116842 31.4743158,33.2227368 L35.1685263,36.9170526 C35.3741053,37.1226316 35.6434737,37.2254737 35.9128421,37.2254737 C36.1822105,37.2254737 36.4516842,37.1226316 36.6570526,36.9170526 L43.0304211,30.5441053 C43.4415789,30.1331579 43.4415789,29.4666316 43.0305263,29.0553684 Z" id="Path" fill-rule="nonzero"></path>
                </g>
            </g>
        </g>
    </g>
</svg>