<svg xmlns="http://www.w3.org/2000/svg" width="34" height="24" viewBox="0 0 34 24">
    <defs>
        <linearGradient id="a" x1="0%" y1="50%" y2="50%">
            <stop offset="0%" stop-color="#1D1C45"/>
            <stop offset="100%" stop-color="#174489"/>
        </linearGradient>
    </defs>
    <g fill="none" fill-rule="evenodd">
        <rect width="33" height="23" x=".5" y=".5" fill="#FFF" stroke="#E2E2E2" rx="2"/>
        <path fill="url(#a)" d="M15.873 8.142l-1.737 7.737h-2.101l1.738-7.737h2.1zm8.84 4.995l1.105-2.905.637 2.905h-1.742zm2.344 2.742H29l-1.696-7.737H25.51a.958.958 0 0 0-.895.567l-3.152 7.17h2.206l.438-1.156h2.695l.254 1.156zm-5.484-2.526c.01-2.042-2.964-2.155-2.943-3.067.006-.278.284-.573.891-.648.3-.038 1.13-.067 2.071.346l.37-1.641A5.894 5.894 0 0 0 19.995 8c-2.077 0-3.538 1.052-3.55 2.558-.014 1.114 1.043 1.735 1.84 2.106.818.379 1.092.622 1.089.961-.006.52-.653.748-1.258.757-1.056.016-1.669-.272-2.157-.489l-.38 1.696c.49.215 1.396.402 2.336.411 2.207 0 3.65-1.038 3.657-2.647zm-8.702-5.211l-3.404 7.737h-2.22L5.572 9.704c-.102-.38-.19-.52-.5-.68-.504-.261-1.338-.506-2.072-.658l.05-.224h3.575c.455 0 .865.288.968.788l.885 4.478 2.187-5.266h2.206z"/>
    </g>
</svg>
